<?xml version="1.0" encoding="UTF-8"?>
<svg width="400" height="100" version="1.1" xmlns="http://www.w3.org/2000/svg">
 <g fill="#f00">
  <path d="m2.7842e-4 84.339v-4.9159h2.0302c0.92807 0 1.9033-0.13776 2.9292-0.42053 1.0224-0.27915 1.8888-0.84832 2.5957-1.7112 0.71418-0.87007 1.073-2.1679 1.073-3.9008v-32.483h-8.2656v-6.308h8.2656v-3.4368c0-5.7497 1.5117-10.224 4.5388-13.413 3.0343-3.1903 7.8306-4.7853 14.385-4.7853 4.0204 0 7.1418 0.29727 9.368 0.88457 2.2331 0.59092 3.8138 1.3994 4.7419 2.4217 0.92807 1.0151 1.3921 2.1752 1.3921 3.4803 0 4.024-3.8066 6.0325-11.413 6.0325 0-0.99332-0.15589-2.0773-0.46404-3.2483-0.31178-1.1782-0.79031-2.1825-1.4356-3.0162-0.64893-0.84107-1.5625-1.2616-2.7407-1.2616-1.548 0-2.6465 0.85194-3.2918 2.5522-0.64893 1.7039-0.9716 4.5968-0.9716 8.6862v5.1044h12.805v6.308h-12.805v32.483c0 1.7329 0.35166 3.0307 1.0586 3.9008 0.71418 0.86282 1.5952 1.432 2.6393 1.7112 1.0513 0.28278 2.0157 0.42053 2.8858 0.42053h4.3648v4.9159z"/>
  <path d="m63.66 85.267c-7.4246 0-13.276-2.1498-17.546-6.453-4.2634-4.2996-6.395-10.81-6.395-19.533 0-8.7188 2.0374-15.216 6.1195-19.49 4.0893-4.2706 10.122-6.4095 18.097-6.4095 7.4246 0 13.269 2.1389 17.532 6.4095 4.2706 4.2742 6.4095 10.77 6.4095 19.49 0 8.7224-2.0592 15.233-6.1774 19.533-4.1111 4.3032-10.122 6.453-18.04 6.453zm0.18851-5.844c3.5854 0 6.0905-1.7148 7.5116-5.1479 1.4211-3.4404 2.1317-8.4397 2.1317-14.994 0-6.6198-0.72506-11.601-2.1752-14.936-1.4501-3.3426-3.9733-5.0174-7.5696-5.0174-3.589 0-6.0905 1.6749-7.5116 5.0174-1.4211 3.3353-2.1317 8.3164-2.1317 14.936 0 6.5545 0.72506 11.554 2.1752 14.994 1.4574 3.4331 3.9806 5.1479 7.5696 5.1479z"/>
  <path d="m94.751 84.339v-4.9159h0.18851c2.0954 0 3.8283-0.36978 5.1915-1.1166 1.3632-0.74318 2.0446-2.5087 2.0446-5.2929v-27.465c0-2.5994-0.60542-4.2524-1.8126-4.9594-1.2109-0.71418-2.835-1.073-4.8724-1.073h-0.27553v-4.9159h19.49l1.2036 6.5836h0.46404c1.2362-2.3491 2.5812-4.0639 4.0314-5.1479 1.4574-1.0804 3.038-1.7909 4.7419-2.1317 1.7002-0.34803 3.5092-0.52204 5.4235-0.52204 4.7636 0 8.505 1.4284 11.224 4.2779 2.7262 2.8422 4.0893 7.3919 4.0893 13.645v21.52c0 2.8531 0.51116 4.6657 1.5371 5.438 1.0224 0.77582 2.5849 1.1601 4.6839 1.1601h0.27553v4.9159h-20.592v-30.539c0-4.0204-0.56192-7.1129-1.6821-9.2807-1.1129-2.1643-3.0271-3.2483-5.7425-3.2483-2.0519 0-3.6652 0.66705-4.8434 2.0011-1.171 1.3341-2.0011 3.0996-2.4942 5.2929-0.49304 2.1969-0.73956 4.5606-0.73956 7.091v17.735c0 2.603 0.59817 4.2597 1.7981 4.9739 1.2072 0.70693 2.835 1.0586 4.8869 1.0586h0.27553v4.9159z"/>
  <path d="m176.7 85.267c-4.1474 0-7.4609-1.0804-9.9332-3.2483-2.4761-2.1643-3.7123-5.9672-3.7123-11.413v-29.698h-6.9606v-4.7419c1.9794 0 3.7594-0.39878 5.3364-1.2036 1.5842-0.80119 2.8422-1.6966 3.7703-2.6827 1.9142-2.0483 3.3353-5.1116 4.2634-9.1937h7.7001v11.514h11.877v6.308h-11.877v28.77c0 2.7842 0.47853 4.8289 1.4356 6.134 0.96436 1.2978 2.5305 1.9432 4.6984 1.9432 1.2362 0 2.3963-0.07613 3.4803-0.23202 1.0804-0.15226 2.1171-0.35528 3.1033-0.60905v6.0325c-0.98608 0.43504-2.6102 0.92807-4.8724 1.4792-2.2622 0.55829-5.0319 0.84107-8.3091 0.84107z"/>
  <path d="m221.03 85.267c-6.0614 0-10.738-2.0519-14.022-6.163-3.2772-4.1183-4.9159-10.633-4.9159-19.547 0-8.969 1.6241-15.56 4.8724-19.765 3.2483-4.2051 7.8742-6.308 13.878-6.308 3.4694 0 6.3153 0.69606 8.5412 2.0882 2.2223 1.3921 3.9878 3.1722 5.2929 5.3364h0.65255c-0.25378-1.7293-0.44229-3.676-0.56555-5.844-0.12689-2.1643-0.18851-3.9915-0.18851-5.4814v-5.1044c0-2.5305-0.74682-4.1219-2.2331-4.7709-1.4792-0.65618-3.241-0.98608-5.2784-0.98608h-0.73956v-4.9159h22.361v59.121c0 1.8561 0.35165 3.2483 1.0586 4.1763 0.71418 0.92808 1.6604 1.548 2.8422 1.8561 1.1782 0.31178 2.4434 0.46404 3.7994 0.46404h0.37703v4.9159h-18.01l-2.5957-7.2361h-0.82656c-1.3632 2.4761-3.1758 4.4591-5.438 5.9454-2.2549 1.4792-5.2059 2.2187-8.8602 2.2187zm3.9878-6.9606c3.6543 0 6.1557-1.5589 7.5116-4.6839 1.3632-3.1214 2.0446-7.8742 2.0446-14.254 0-6.1195-0.68156-10.818-2.0446-14.096-1.3558-3.2845-3.8573-4.9304-7.5116-4.9304-3.096 0-5.3075 1.6458-6.6415 4.9304-1.3269 3.2772-1.9866 8.0119-1.9866 14.197 0 6.3153 0.6598 11.032 1.9866 14.153 1.3341 3.125 3.5455 4.6839 6.6415 4.6839z"/>
  <path d="m279.52 26.247c-2.2259 0-4.0966-0.54017-5.612-1.6241-1.519-1.0804-2.2767-2.7697-2.2767-5.0609 0-2.3491 0.75769-4.0495 2.2767-5.1044 1.5154-1.0513 3.386-1.5806 5.612-1.5806 2.1643 0 4.035 0.52929 5.612 1.5806 1.5842 1.0549 2.3782 2.7553 2.3782 5.1044 0 2.2912-0.79394 3.9806-2.3782 5.0609-1.577 1.084-3.4476 1.6241-5.612 1.6241zm-14.284 58.092v-4.9159h1.1166c0.92808 0 1.8997-0.13776 2.9147-0.42053 1.0224-0.27915 1.8888-0.84832 2.5957-1.7112 0.71418-0.87007 1.073-2.1679 1.073-3.9008v-28.219c0-1.6713-0.3734-2.9075-1.1166-3.7123-0.74681-0.80119-1.6314-1.3232-2.6537-1.5661-1.0151-0.25014-1.9541-0.37703-2.8132-0.37703h-1.1166v-4.9159h21.81v38.791c0 1.7329 0.35166 3.0307 1.0586 3.9008 0.71419 0.86282 1.5988 1.432 2.6537 1.7112 1.0513 0.28278 2.0084 0.42053 2.8713 0.42053h1.1166v4.9159z"/>
  <path d="m309.98 84.339v-4.9159h2.0302c0.92807 0 1.9033-0.13776 2.9292-0.42053 1.0224-0.27915 1.8888-0.84832 2.5957-1.7112 0.71418-0.87007 1.073-2.1679 1.073-3.9008v-32.483h-8.2656v-6.308h8.2656v-3.4368c0-5.7497 1.5117-10.224 4.5388-13.413 3.0343-3.1903 7.8306-4.7853 14.385-4.7853 4.0204 0 7.1418 0.29727 9.368 0.88457 2.2331 0.59092 3.8138 1.3994 4.7419 2.4217 0.92808 1.0151 1.3921 2.1752 1.3921 3.4803 0 4.024-3.8066 6.0325-11.413 6.0325 0-0.99332-0.15588-2.0773-0.46403-3.2483-0.31178-1.1782-0.79031-2.1825-1.4356-3.0162-0.64893-0.84107-1.5625-1.2616-2.7407-1.2616-1.548 0-2.6465 0.85194-3.2918 2.5522-0.64893 1.7039-0.9716 4.5968-0.9716 8.6862v5.1044h12.805v6.308h-12.805v32.483c0 1.7329 0.35165 3.0307 1.0586 3.9008 0.71418 0.86282 1.5952 1.432 2.6392 1.7112 1.0513 0.28278 2.0157 0.42053 2.8858 0.42053h4.3648v4.9159z"/>
  <path d="m356.38 84.339v-4.9159h2.0302c0.92808 0 1.9033-0.13776 2.9292-0.42053 1.0224-0.27915 1.8888-0.84832 2.5957-1.7112 0.71418-0.87007 1.073-2.1679 1.073-3.9008v-32.483h-8.2656v-6.308h8.2656v-3.4368c0-5.7497 1.5117-10.224 4.5388-13.413 3.0343-3.1903 7.8306-4.7853 14.385-4.7853 4.0204 0 7.1418 0.29727 9.368 0.88457 2.2331 0.59092 3.8138 1.3994 4.7419 2.4217 0.92808 1.0151 1.3921 2.1752 1.3921 3.4803 0 4.024-3.8066 6.0325-11.413 6.0325 0-0.99332-0.15589-2.0773-0.46404-3.2483-0.31178-1.1782-0.79031-2.1825-1.4356-3.0162-0.64893-0.84107-1.5625-1.2616-2.7407-1.2616-1.548 0-2.6465 0.85194-3.2918 2.5522-0.64893 1.7039-0.9716 4.5968-0.9716 8.6862v5.1044h12.805v6.308h-12.805v32.483c0 1.7329 0.35165 3.0307 1.0586 3.9008 0.71418 0.86282 1.5952 1.432 2.6393 1.7112 1.0513 0.28278 2.0157 0.42053 2.8858 0.42053h4.3648v4.9159z"/>
 </g>
 <g fill="#0f0">
  <path d="m34.724 44.055h-11.978v40.284h-13.82v-40.284h-7.6131v-6.6705l7.6131-3.7123v-3.7123c0-4.3286 0.72506-7.6856 2.1752-10.064 1.4574-2.3854 3.531-4.0748 6.221-5.0609 2.6863-0.99332 5.8585-1.4936 9.5128-1.4936 2.7262 0 5.1841 0.21752 7.3811 0.65255 2.1933 0.43504 3.9733 0.92807 5.3364 1.4792l-3.5238 10.122c-1.0549-0.30815-2.2006-0.6018-3.4368-0.88457-1.2398-0.27915-2.6646-0.42053-4.2779-0.42053-1.9142 0-3.3207 0.59092-4.2199 1.7691-0.89907 1.171-1.3486 2.6537-1.3486 4.4519v3.1612h11.978z"/>
  <path d="m88.631 58.904c0 8.4215-2.215 14.922-6.6415 19.504-4.4301 4.5751-10.448 6.859-18.054 6.859-4.6984 0-8.8892-1.0187-12.573-3.0598-3.6833-2.0374-6.5799-5.0211-8.6862-8.9472-2.099-3.9335-3.1467-8.7188-3.1467-14.356 0-8.4107 2.1933-14.871 6.5836-19.388 4.3975-4.5135 10.43-6.7721 18.097-6.7721 4.7636 0 8.969 1.0224 12.616 3.0598 3.6543 2.041 6.5328 4.9956 8.6427 8.8602 2.1063 3.8682 3.1612 8.6136 3.1612 14.24zm-34.991 0c0 5.0174 0.81569 8.8131 2.4507 11.384 1.6422 2.5631 4.3213 3.8428 8.0336 3.8428 3.6543 0 6.2972-1.2797 7.9322-3.8428 1.6422-2.5703 2.4652-6.366 2.4652-11.384 0-5.0065-0.82294-8.7623-2.4652-11.268-1.635-2.5014-4.3068-3.7558-8.0191-3.7558-3.6543 0-6.3044 1.2544-7.9466 3.7558-1.635 2.5051-2.4507 6.2609-2.4507 11.268z"/>
  <path d="m128.9 32.743c5.4416 0 9.8023 1.4718 13.08 4.4084 3.2846 2.9401 4.9304 7.6566 4.9304 14.153v33.034h-13.834v-29.611c0-3.6434-0.65254-6.3805-1.9577-8.2077-1.2978-1.8272-3.3643-2.7407-6.2065-2.7407-4.2053 0-7.0838 1.4429-8.6282 4.3213-1.548 2.8713-2.3202 7.0005-2.3202 12.384v23.854h-13.834v-50.667h10.586l1.8562 6.4965h0.73956c1.6024-2.5994 3.8138-4.4845 6.627-5.6555 2.8205-1.1782 5.8077-1.7691 8.9617-1.7691z"/>
  <path d="m182.73 74.217c1.5444 0 3.0307-0.15226 4.4519-0.46404 1.4284-0.30815 2.8567-0.6743 4.2779-1.1021v10.296c-1.49 0.61993-3.3316 1.1601-5.5249 1.6241-2.1969 0.46404-4.5932 0.69606-7.1926 0.69606-3.038 0-5.7425-0.49304-8.1206-1.4792-2.3782-0.99332-4.2634-2.7117-5.6555-5.1479-1.3921-2.4434-2.0882-5.8331-2.0882-10.165v-24.419h-6.5981v-5.844l7.6131-4.6404 3.9878-10.673h8.8167v10.774h14.197v10.383h-14.197v24.419c0 1.9142 0.55467 3.3498 1.6676 4.3068 1.1202 0.95703 2.5739 1.4356 4.3648 1.4356z"/>
  <path d="m220.13 85.267c-5.6264 0-10.22-2.2078-13.776-6.627-3.56-4.4264-5.3364-10.941-5.3364-19.547 0-8.6608 1.7909-15.216 5.38-19.664 3.5854-4.4555 8.2874-6.685 14.11-6.685 3.6543 0 6.6561 0.71055 9.0052 2.1317 2.3491 1.4211 4.2053 3.1866 5.5684 5.2929h0.46403c-0.18489-0.99332-0.4024-2.4362-0.65254-4.3213-0.25378-1.8851-0.37703-3.8174-0.37703-5.8005v-16.241h13.834v70.534h-10.586l-2.6827-6.5836h-0.56555c-1.3558 2.099-3.1758 3.8791-5.4669 5.3364-2.2912 1.4501-5.2639 2.1752-8.9182 2.1752zm4.8289-11.05c3.8356 0 6.5292-1.1238 8.0771-3.3787 1.5444-2.2622 2.3492-5.6482 2.4072-10.165v-1.4792c0-4.9485-0.7613-8.7224-2.2767-11.325-1.5081-2.5994-4.3068-3.9008-8.3962-3.9008-3.0271 0-5.4089 1.316-7.149 3.9443-1.7329 2.6319-2.5957 6.4204-2.5957 11.369 0 4.9521 0.86282 8.679 2.5957 11.181 1.7401 2.5051 4.1836 3.7558 7.3375 3.7558z"/>
  <path d="m279.98 13.805c2.0374 0 3.803 0.47853 5.2929 1.4356 1.4864 0.95703 2.2331 2.7371 2.2331 5.3364 0 2.545-0.74682 4.3068-2.2331 5.2929-1.49 0.98608-3.2555 1.4792-5.2929 1.4792-2.099 0-3.8791-0.49304-5.3364-1.4792-1.4501-0.98608-2.1752-2.7479-2.1752-5.2929 0-2.5994 0.72505-4.3794 2.1752-5.3364 1.4574-0.95703 3.2374-1.4356 5.3364-1.4356zm6.8735 19.866v50.667h-13.834v-50.667z"/>
  <path d="m344.72 44.055h-11.978v40.284h-13.82v-40.284h-7.6131v-6.6705l7.6131-3.7123v-3.7123c0-4.3286 0.72506-7.6856 2.1752-10.064 1.4574-2.3854 3.531-4.0748 6.221-5.0609 2.6863-0.99332 5.8585-1.4936 9.5128-1.4936 2.7262 0 5.1841 0.21752 7.3811 0.65255 2.1933 0.43504 3.9733 0.92807 5.3364 1.4792l-3.5238 10.122c-1.0549-0.30815-2.2006-0.6018-3.4368-0.88457-1.2398-0.27915-2.6646-0.42053-4.2779-0.42053-1.9142 0-3.3207 0.59092-4.2199 1.7691-0.89907 1.171-1.3486 2.6537-1.3486 4.4519v3.1612h11.978z"/>
  <path d="m391.1 44.055h-11.978v40.284h-13.82v-40.284h-7.6131v-6.6705l7.6131-3.7123v-3.7123c0-4.3286 0.72506-7.6856 2.1752-10.064 1.4574-2.3854 3.531-4.0748 6.221-5.0609 2.6863-0.99332 5.8585-1.4936 9.5128-1.4936 2.7262 0 5.1841 0.21752 7.3811 0.65255 2.1933 0.43504 3.9733 0.92807 5.3364 1.4792l-3.5238 10.122c-1.055-0.30815-2.2006-0.6018-3.4368-0.88457-1.2398-0.27915-2.6646-0.42053-4.2779-0.42053-1.9142 0-3.3207 0.59092-4.2199 1.7691-0.89907 1.171-1.3486 2.6537-1.3486 4.4519v3.1612h11.978z"/>
 </g>
 <path d="m26.837 13.341c-3.6543 0-6.8264 0.50031-9.5128 1.4936-0.0022 8.23e-4 -0.0032 1e-3 -0.0055 0.0019-1.6297 0.7472-3.0132 1.7186-4.1491 2.9129-1.8695 1.97-3.161 4.4298-3.8755 7.3774-0.24364 1.4473-0.36615 3.0583-0.36615 4.8325v3.7123l-0.29727 0.14501v0.78306h-1.6059l-5.7098 2.7842v3.5238h7.3158v3.1467h0.29727v40.284h13.822v-10.5c-0.0055-0.1458-0.0091-0.29519-0.0091-0.44772v-32.483h11.985v-6.308h-11.985v-5.1044c0-4.0894 0.32265-6.9824 0.9716-8.6862 0.64529-1.7002 1.7438-2.5522 3.2918-2.5522 1.1782 0 2.0918 0.42053 2.7407 1.2616 0.64533 0.83378 1.1238 1.8381 1.4356 3.0162 0.18185 0.69101 0.31104 1.3516 0.3861 1.9813 0.35602 0.05469 0.69799 0.1197 1.0277 0.19395 1.154 0.26396 2.2304 0.53707 3.2265 0.82294 0.08178-0.01105 0.1625-0.02265 0.2429-0.03444h0.0019l3.4893-10.026c-1.3632-0.55109-3.1431-1.0441-5.3364-1.4792-2.1969-0.43502-4.6548-0.65255-7.3811-0.65255z"/>
 <path d="m63.939 33.382c-7.6716 0-13.545 1.9779-17.62 5.9292-0.06749 0.06746-0.13447 0.13633-0.20121 0.20483-0.94914 0.97671-1.7957 2.0445-2.5395 3.203-2.5713 4.1203-3.8555 9.6408-3.8555 16.562 0 2.7987 0.21913 5.3696 0.65799 7.7128 0.52356 2.286 1.2907 4.3745 2.3002 6.2664 2.1064 3.9261 5.0029 6.9098 8.6862 8.9472 3.6309 2.012 7.7542 3.0311 12.371 3.0598 1.5935-0.0027 3.1093-0.09266 4.5479-0.27009 5.5879-0.72777 10.158-2.9233 13.708-6.589 0.38764-0.40133 0.75744-0.81636 1.1112-1.2471 3.1841-4.2501 4.7763-10.211 4.7763-17.88 0-8.7193-2.1388-15.215-6.4095-19.49-4.2636-4.2705-10.108-6.4095-17.532-6.4095zm-0.18851 5.9454c3.5963 0 6.1195 1.6748 7.5696 5.0174 0.51934 1.1945 0.94636 2.5999 1.2797 4.2162 1.2828 2.4711 1.925 5.9186 1.925 10.343 0 4.1766-0.57111 7.5064-1.7093 9.9879-0.34939 2.0899-0.8329 3.8849-1.452 5.3836-1.4212 3.4331-3.9261 5.1479-7.5116 5.1479-3.589 0-6.1123-1.7148-7.5696-5.1479-0.87692-2.0804-1.4878-4.7307-1.8344-7.9503-0.53626-2.072-0.80482-4.5462-0.80482-7.421 0-3.0848 0.30978-5.6956 0.92993-7.8306 0.35377-2.7095 0.90886-4.9519 1.6658-6.7285 1.4212-3.3425 3.9226-5.0174 7.5116-5.0174z"/>
 <path d="m130.57 33.382c-1.9142 0-3.7232 0.17401-5.4235 0.52204-1.7039 0.34079-3.2846 1.0513-4.7419 2.1317-1.4502 1.084-2.7952 2.7988-4.0314 5.1479h-0.46404l-0.6453-3.5274c-0.72763 0.74634-1.3779 1.5837-1.9504 2.5123h-0.73956l-1.5915-5.5684h-10.85v5.8585c0.0787 0.04176 0.15653 0.08599 0.23202 0.13051 1.2072 0.70701 1.8126 2.3601 1.8126 4.9594v27.465c0 2.7838-0.68199 4.5495-2.0446 5.2929v6.0325h13.834v-23.854c0-5.3838 0.77216-9.5128 2.3202-12.384 0.40688-0.75832 0.90713-1.4169 1.499-1.9758 0.45711-1.1044 1.035-2.056 1.7347-2.8531 1.1783-1.334 2.7915-2.0011 4.8434-2.0011 2.7154 0 4.6295 1.084 5.7425 3.2483 0.24119 0.46676 0.45591 0.97559 0.6453 1.5281 0.12954 0.14991 0.25274 0.30832 0.36978 0.4731 1.3052 1.8272 1.9577 4.5643 1.9577 8.2077v29.611h13.834v-6.5998c-0.68704-0.94116-1.0296-2.5786-1.0296-4.9141v-21.52c0-6.2536-1.3632-10.804-4.0893-13.645-2.7192-2.8495-6.4603-4.2779-11.224-4.2779z"/>
 <path d="m169.46 23.086c-0.92807 4.082-2.3491 7.1454-4.2634 9.1937-0.36267 0.38534-0.77481 0.75553-1.238 1.1129h-2e-3l-0.0653 0.17764-7.6131 4.6404v2.6972h6.7721v29.698c0 0.62738 0.0161 1.2325 0.0489 1.8162 0.30639 2.5002 0.92836 4.5731 1.8652 6.2174 1.3921 2.4362 3.2772 4.1546 5.6555 5.1479 2.1515 0.89213 4.5705 1.3814 7.2614 1.4664 2.7653-0.06085 5.1394-0.33867 7.1237-0.82838 2.2622-0.55109 3.8863-1.0441 4.8724-1.4791v-6.0325c-0.98618 0.25377-2.0228 0.45679-3.1033 0.60905-1.084 0.15589-2.2441 0.23202-3.4803 0.23202-2.1679 0-3.734-0.64534-4.6984-1.9432-0.76888-1.0484-1.2282-2.5758-1.3794-4.5787-0.34671-0.77055-0.52023-1.6897-0.52023-2.7589v-24.419h0.46404v-3.1467h11.877v-6.308h-11.877v-0.92807h-0.46404v-10.586z"/>
 <path d="m234.52 13.805v9.4933c0.0409 0.36759 0.0616 0.76091 0.0616 1.18v5.1044c0 1.3551 0.0512 2.9886 0.15589 4.9013 0.0459 0.45687 0.0987 0.9117 0.15952 1.3632 0.25014 1.8851 0.46765 3.3281 0.65255 4.3213h-0.31722c0.033 0.2509 0.0678 0.49722 0.10332 0.73956h-0.65255c-1.305-2.1643-3.0706-3.9443-5.2929-5.3364-2.2259-1.3921-5.0717-2.0882-8.5412-2.0882-6.0033 0-10.629 2.1029-13.877 6.308-3.2483 4.2051-4.8724 10.796-4.8724 19.765 0 8.9142 1.6387 15.429 4.9159 19.548 3.2035 4.0097 7.7313 6.0607 13.577 6.1594 3.446-0.05832 6.2664-0.7823 8.4614-2.1715 2.2911-1.4574 4.1111-3.2374 5.4669-5.3364h0.43866c0.12907-0.2135 0.25515-0.43116 0.37703-0.65255h0.82656l2.5957 7.2361h9.5963v-70.534zm-9.4942 26.537c3.6544 0 6.1557 1.6458 7.5116 4.9304 0.41485 0.99768 0.76635 2.1271 1.0549 3.3878 1.2359 2.5555 1.8562 6.0653 1.8562 10.534v1.4792c-0.0486 3.7783-0.62005 6.7655-1.7093 8.9654-0.31343 1.5374-0.71328 2.8656-1.2018 3.9842-1.3559 3.125-3.8573 4.6839-7.5116 4.6839-3.096 0-5.3075-1.5589-6.6415-4.6839-0.44959-1.0576-0.8235-2.299-1.1202-3.7232-1.4909-2.485-2.2331-6.0245-2.2331-10.618 0-4.8065 0.81421-8.5179 2.4489-11.139 0.25584-1.056 0.55759-2.0126 0.90451-2.8694 1.334-3.2845 3.5456-4.9304 6.6415-4.9304z"/>
 <path d="m279.98 13.805c-2.099 0-3.8791 0.47859-5.3364 1.4356-1.4502 0.95703-2.1752 2.7371-2.1752 5.3364 0 1.2715 0.18183 2.3469 0.5438 3.2283 0.26369 0.30266 0.56461 0.57576 0.90451 0.8175 1.5154 1.084 3.3861 1.6241 5.612 1.6241 2.1644 0 4.035-0.54014 5.612-1.6241 1.4419-0.9832 2.2302-2.4724 2.3601-4.4591-0.076-2.3762-0.82124-4.0175-2.2278-4.9232-1.4899-0.95712-3.2555-1.4356-5.2929-1.4356zm-6.9606 20.794v49.739h13.834v-49.739z"/>
 <path d="m336.83 13.341c-3.6543 0-6.8264 0.50031-9.5128 1.4936-0.0315 0.01154-0.063 0.02271-0.0943 0.03444-1.5992 0.74278-2.9589 1.7032-4.0784 2.8803-1.8208 1.9186-3.0942 4.3013-3.8192 7.1473-0.27027 1.506-0.40422 3.194-0.40422 5.0627v3.7123l-0.3154 0.15408v0.774h-1.5878l-5.7098 2.7842v3.5238h7.2977v3.1467h0.3154v40.284h13.82v-10.174c-0.0169-0.24762-0.0254-0.50552-0.0254-0.774v-32.483h12.004v-6.308h-12.004v-5.1044c0-4.0894 0.32265-6.9824 0.9716-8.6862 0.64529-1.7002 1.7438-2.5522 3.2918-2.5522 1.1782 0 2.0918 0.42053 2.7407 1.2616 0.64533 0.83378 1.1238 1.8381 1.4356 3.0162 0.18159 0.69002 0.311 1.3487 0.3861 1.9776 0.36228 0.05526 0.71072 0.12212 1.0459 0.19758 1.1518 0.26347 2.2248 0.53583 3.2193 0.82113 0.0846-0.01147 0.16888-0.02399 0.25196-0.03625l3.4894-10.022c-1.3632-0.55109-3.1431-1.0441-5.3364-1.4792-2.1969-0.43503-4.6548-0.65255-7.3811-0.65255z"/>
 <path d="m383.21 13.341c-3.6543 0-6.8264 0.50031-9.5128 1.4936-2e-3 8.17e-4 -3e-3 1e-3 -5e-3 0.0019-1.6297 0.74721-3.0132 1.7186-4.1491 2.9129-1.8696 1.97-3.161 4.4297-3.8754 7.3774-0.24362 1.4472-0.36615 3.0583-0.36615 4.8325v3.7123l-0.29727 0.14501v0.78306h-1.6059l-5.7098 2.7842v3.5238h7.3158v3.1467h0.29727v40.284h13.82v-10.5c-5e-3 -0.14572-7e-3 -0.29528-7e-3 -0.44772v-32.483h11.985v-6.308h-11.985v-5.1044c0-4.0894 0.32266-6.9824 0.9716-8.6862 0.64529-1.7002 1.7438-2.5522 3.2918-2.5522 1.1782 0 2.0918 0.42053 2.7407 1.2616 0.64532 0.83378 1.1238 1.8381 1.4356 3.0162 0.18184 0.69101 0.31104 1.3516 0.38609 1.9813 0.35602 0.05469 0.69799 0.1197 1.0278 0.19395 1.154 0.26396 2.2304 0.53707 3.2266 0.82294 0.0818-0.01105 0.16249-0.02265 0.24289-0.03444h2e-3l3.4894-10.026c-1.3632-0.55109-3.1431-1.0441-5.3364-1.4792-2.1969-0.43502-4.6548-0.65255-7.3811-0.65255z"/>
</svg>
